<svg width="102" height="74" viewBox="0 0 102 74" fill="none" xmlns="http://www.w3.org/2000/svg">
<path d="M60.2727 27.2875V19.425C62.8227 18.3458 65.4314 17.5365 68.0989 16.9969C70.7633 16.4573 73.5636 16.1875 76.5 16.1875C78.5091 16.1875 80.4795 16.3417 82.4114 16.65C84.3432 16.9583 86.2364 17.3438 88.0909 17.8062V25.2062C86.2364 24.5125 84.3633 23.993 82.4716 23.6476C80.5769 23.2992 78.5864 23.125 76.5 23.125C73.5636 23.125 70.7432 23.4919 68.0386 24.2257C65.3341 24.9565 62.7455 25.9771 60.2727 27.2875ZM60.2727 52.725V44.8625C62.8227 43.7833 65.4314 42.974 68.0989 42.4344C70.7633 41.8948 73.5636 41.625 76.5 41.625C78.5091 41.625 80.4795 41.7792 82.4114 42.0875C84.3432 42.3958 86.2364 42.7812 88.0909 43.2438V50.6437C86.2364 49.95 84.3633 49.4305 82.4716 49.0851C80.5769 48.7367 78.5864 48.5625 76.5 48.5625C73.5636 48.5625 70.7432 48.9094 68.0386 49.6031C65.3341 50.2969 62.7455 51.3375 60.2727 52.725ZM60.2727 40.0062V32.1437C62.8227 31.0646 65.4314 30.2552 68.0989 29.7156C70.7633 29.176 73.5636 28.9062 76.5 28.9062C78.5091 28.9062 80.4795 29.0604 82.4114 29.3688C84.3432 29.6771 86.2364 30.0625 88.0909 30.525V37.925C86.2364 37.2313 84.3633 36.7117 82.4716 36.3664C80.5769 36.018 78.5864 35.8438 76.5 35.8438C73.5636 35.8438 70.7432 36.2107 68.0386 36.9445C65.3341 37.6753 62.7455 38.6958 60.2727 40.0062ZM25.5 55.5C29.1318 55.5 32.6678 55.9039 36.108 56.7117C39.5451 57.5227 42.9636 58.7375 46.3636 60.3562V14.8C43.1955 12.95 39.8341 11.5625 36.2795 10.6375C32.725 9.7125 29.1318 9.25 25.5 9.25C22.7182 9.25 19.9565 9.51979 17.2148 10.0594C14.4701 10.599 11.8227 11.4083 9.27273 12.4875V58.275C11.9773 57.35 14.6633 56.6562 17.3307 56.1937C19.9951 55.7312 22.7182 55.5 25.5 55.5ZM55.6364 60.3562C59.0364 58.7375 62.4565 57.5227 65.8966 56.7117C69.3337 55.9039 72.8682 55.5 76.5 55.5C79.2818 55.5 82.0065 55.7312 84.6739 56.1937C87.3383 56.6562 90.0227 57.35 92.7273 58.275V12.4875C90.1773 11.4083 87.5315 10.599 84.7898 10.0594C82.0451 9.51979 79.2818 9.25 76.5 9.25C72.8682 9.25 69.275 9.7125 65.7205 10.6375C62.1659 11.5625 58.8045 12.95 55.6364 14.8V60.3562ZM51 74C47.2909 71.0708 43.2727 68.7969 38.9454 67.1781C34.6182 65.5594 30.1364 64.75 25.5 64.75C22.2545 64.75 19.0678 65.174 15.9398 66.0219C12.8087 66.8698 9.81364 68.0646 6.95455 69.6062C5.33182 70.4542 3.76782 70.4156 2.26255 69.4906C0.754182 68.5656 0 67.2167 0 65.4437V9.7125C0 8.86458 0.213273 8.05521 0.639818 7.28437C1.06327 6.51354 1.7 5.93542 2.55 5.55C6.10455 3.7 9.81364 2.3125 13.6773 1.3875C17.5409 0.462501 21.4818 0 25.5 0C29.9818 0 34.3678 0.578125 38.658 1.73438C42.9451 2.89062 47.0591 4.625 51 6.9375C54.9409 4.625 59.0565 2.89062 63.3466 1.73438C67.6337 0.578125 72.0182 0 76.5 0C80.5182 0 84.4591 0.462501 88.3227 1.3875C92.1864 2.3125 95.8955 3.7 99.45 5.55C100.3 5.93542 100.938 6.51354 101.365 7.28437C101.788 8.05521 102 8.86458 102 9.7125V65.4437C102 67.2167 101.247 68.5656 99.7421 69.4906C98.2337 70.4156 96.6682 70.4542 95.0454 69.6062C92.1864 68.0646 89.1913 66.8698 86.0602 66.0219C82.9322 65.174 79.7455 64.75 76.5 64.75C71.8636 64.75 67.3818 65.5594 63.0545 67.1781C58.7273 68.7969 54.7091 71.0708 51 74Z" fill="#E7E4E2"/>
</svg>
