<svg width="96" height="96" viewBox="0 0 96 96" fill="none" xmlns="http://www.w3.org/2000/svg">
<g clip-path="url(#clip0_447_2019)">
<path d="M30 16C22.28 16 16 22.28 16 30C16 37.72 22.28 44 30 44C37.72 44 44 37.72 44 30C44 22.28 37.72 16 30 16ZM30 36C26.68 36 24 33.32 24 30C24 26.68 26.68 24 30 24C33.32 24 36 26.68 36 30C36 33.32 33.32 36 30 36ZM66 52C58.28 52 52 58.28 52 66C52 73.72 58.28 80 66 80C73.72 80 80 73.72 80 66C80 58.28 73.72 52 66 52ZM66 72C62.68 72 60 69.32 60 66C60 62.68 62.68 60 66 60C69.32 60 72 62.68 72 66C72 69.32 69.32 72 66 72ZM21.64 80L16 74.36L74.36 16L80 21.64L21.64 80Z" fill="#68635D"/>
</g>
<defs>
<clipPath id="clip0_447_2019">
<rect width="96" height="96" fill="white"/>
</clipPath>
</defs>
</svg>
