<svg width="96" height="96" viewBox="0 0 96 96" fill="none" xmlns="http://www.w3.org/2000/svg">
<path d="M71.8 64.7L60.4 53.4L66.1 47.8L71.8 53.4L85.9 39.3L91.6 44.9L71.8 64.7ZM44 84L31.3 72.6C26.5 68.2667 22.3833 64.4 18.95 61C15.5167 57.6 12.6833 54.4 10.45 51.4C8.21667 48.4 6.58333 45.5 5.55 42.7C4.51667 39.9 4 36.9667 4 33.9C4 27.6333 6.1 22.4167 10.3 18.25C14.5 14.0833 19.7333 12 26 12C29.4667 12 32.7667 12.7333 35.9 14.2C39.0333 15.6667 41.7333 17.7333 44 20.4C46.2667 17.7333 48.9667 15.6667 52.1 14.2C55.2333 12.7333 58.5333 12 62 12C67.4 12 71.9333 13.5167 75.6 16.55C79.2667 19.5833 81.7667 23.4 83.1 28H74.6C73.4 25.3333 71.6333 23.3333 69.3 22C66.9667 20.6667 64.5333 20 62 20C58.6 20 55.6667 20.9167 53.2 22.75C50.7333 24.5833 48.4333 27 46.3 30H41.7C39.6333 27 37.2833 24.5833 34.65 22.75C32.0167 20.9167 29.1333 20 26 20C22.2 20 18.9167 21.3167 16.15 23.95C13.3833 26.5833 12 29.9 12 33.9C12 36.1 12.4667 38.3333 13.4 40.6C14.3333 42.8667 16 45.4833 18.4 48.45C20.8 51.4167 24.0667 54.8833 28.2 58.85C32.3333 62.8167 37.6 67.6 44 73.2C45.7333 71.6667 47.7667 69.9 50.1 67.9C52.4333 65.9 54.3 64.2333 55.7 62.9L56.6 63.8L58.55 65.75L60.5 67.7L61.4 68.6C59.9333 69.9333 58.0667 71.5833 55.8 73.55C53.5333 75.5167 51.5333 77.2667 49.8 78.8L44 84Z" fill="#68635D"/>
</svg>
