<svg width="96" height="96" viewBox="0 0 96 96" fill="none" xmlns="http://www.w3.org/2000/svg">
<g clip-path="url(#clip0_447_2017)">
<path d="M24 79C17.0667 77.2 11.3333 73.4667 6.8 67.8C2.26667 62.1333 0 55.5333 0 48C0 40.4667 2.26667 33.8667 6.8 28.2C11.3333 22.5333 17.0667 18.8 24 17V25.4C19.2667 27 15.4167 29.8667 12.45 34C9.48333 38.1333 8 42.8 8 48C8 53.2 9.48333 57.8667 12.45 62C15.4167 66.1333 19.2667 69 24 70.6V79ZM56 80C47.1333 80 39.5833 76.8833 33.35 70.65C27.1167 64.4167 24 56.8667 24 48C24 39.1333 27.1167 31.5833 33.35 25.35C39.5833 19.1167 47.1333 16 56 16C60.4 16 64.5333 16.8333 68.4 18.5C72.2667 20.1667 75.6667 22.4667 78.6 25.4L73 31C70.8 28.8 68.25 27.0833 65.35 25.85C62.45 24.6167 59.3333 24 56 24C49.3333 24 43.6667 26.3333 39 31C34.3333 35.6667 32 41.3333 32 48C32 54.6667 34.3333 60.3333 39 65C43.6667 69.6667 49.3333 72 56 72C59.3333 72 62.45 71.3833 65.35 70.15C68.25 68.9167 70.8 67.2 73 65L78.6 70.6C75.6667 73.5333 72.2667 75.8333 68.4 77.5C64.5333 79.1667 60.4 80 56 80ZM80 64L74.4 58.4L80.8 52H52V44H80.8L74.4 37.6L80 32L96 48L80 64Z" fill="#68635D"/>
</g>
<defs>
<clipPath id="clip0_447_2017">
<rect width="96" height="96" fill="white"/>
</clipPath>
</defs>
</svg>
