<svg width="91" height="78" viewBox="0 0 91 78" fill="none" xmlns="http://www.w3.org/2000/svg">
<path d="M17.3333 69.3333H43.3333V65H17.3333V69.3333ZM20.5833 30.3333H40.0833C40.95 30.3333 41.7083 30.0083 42.3583 29.3583C43.0083 28.7083 43.3333 27.95 43.3333 27.0833C43.3333 26.2167 43.0083 25.4583 42.3583 24.8083C41.7083 24.1583 40.95 23.8333 40.0833 23.8333H20.5833C19.7167 23.8333 18.9583 24.1583 18.3083 24.8083C17.6583 25.4583 17.3333 26.2167 17.3333 27.0833C17.3333 27.95 17.6583 28.7083 18.3083 29.3583C18.9583 30.0083 19.7167 30.3333 20.5833 30.3333ZM20.5833 19.5H40.0833C40.95 19.5 41.7083 19.175 42.3583 18.525C43.0083 17.875 43.3333 17.1167 43.3333 16.25C43.3333 15.3833 43.0083 14.625 42.3583 13.975C41.7083 13.325 40.95 13 40.0833 13H20.5833C19.7167 13 18.9583 13.325 18.3083 13.975C17.6583 14.625 17.3333 15.3833 17.3333 16.25C17.3333 17.1167 17.6583 17.875 18.3083 18.525C18.9583 19.175 19.7167 19.5 20.5833 19.5ZM60.6667 34.6667V26H69.3333V17.3333H60.6667V8.66667H69.3333C71.7167 8.66667 73.7577 9.516 75.4563 11.2147C77.1521 12.9104 78 14.95 78 17.3333H86.6667C87.8944 17.3333 88.9229 17.7479 89.752 18.577C90.584 19.409 91 20.4389 91 21.6667C91 22.8944 90.584 23.9229 89.752 24.752C88.9229 25.584 87.8944 26 86.6667 26H78C78 28.3833 77.1521 30.4229 75.4563 32.1187C73.7577 33.8173 71.7167 34.6667 69.3333 34.6667H60.6667ZM43.3333 56.3333H34.6667V34.6667H52V8.66667H17.3333C14.95 8.66667 12.9104 9.516 11.2147 11.2147C9.516 12.9104 8.66667 14.95 8.66667 17.3333V26C8.66667 28.3833 9.516 30.4229 11.2147 32.1187C12.9104 33.8173 14.95 34.6667 17.3333 34.6667H26V56.3333H17.3333V43.3333C12.5667 43.3333 8.48611 41.6361 5.09167 38.2417C1.69722 34.8472 0 30.7667 0 26V17.3333C0 12.5667 1.69722 8.48611 5.09167 5.09167C8.48611 1.69722 12.5667 0 17.3333 0H52C54.3833 0 56.4243 0.847888 58.123 2.54367C59.8188 4.24233 60.6667 6.28333 60.6667 8.66667V34.6667C60.6667 37.05 59.8188 39.0896 58.123 40.7853C56.4243 42.484 54.3833 43.3333 52 43.3333H43.3333V56.3333ZM15.1667 78C13.3611 78 11.8271 77.3673 10.5647 76.102C9.29933 74.8396 8.66667 73.3056 8.66667 71.5V62.8333C8.66667 61.0278 9.29933 59.4938 10.5647 58.2313C11.8271 56.966 13.3611 56.3333 15.1667 56.3333H45.5C47.3056 56.3333 48.8396 56.966 50.102 58.2313C51.3673 59.4938 52 61.0278 52 62.8333V71.5C52 73.3056 51.3673 74.8396 50.102 76.102C48.8396 77.3673 47.3056 78 45.5 78H15.1667Z" fill="#E7E4E2"/>
</svg>
