<svg width="37" height="37" viewBox="0 0 37 37" fill="none" xmlns="http://www.w3.org/2000/svg">
<g clip-path="url(#clip0_13_91)">
<path d="M10.7546 0.406943C8.83942 0.497303 7.53154 0.802943 6.38818 1.25222C5.20486 1.71338 4.2019 2.33222 3.20398 3.33374C2.20606 4.33526 1.59154 5.33894 1.13362 6.52406C0.690462 7.66994 0.390222 8.9789 0.305622 10.8952C0.221022 12.8115 0.202302 13.4274 0.211662 18.3155C0.221022 23.2036 0.242622 23.8163 0.335502 25.7365C0.426942 27.6514 0.731502 28.9589 1.18078 30.1026C1.64266 31.2859 2.26078 32.2885 3.26266 33.2868C4.26454 34.2851 5.2675 34.8982 6.4555 35.3568C7.6003 35.7993 8.90962 36.1009 10.8255 36.1848C12.7415 36.2687 13.3581 36.2881 18.2448 36.2788C23.1314 36.2694 23.7467 36.2478 25.6665 36.1567C27.5864 36.0657 28.8871 35.7589 30.0312 35.3118C31.2145 34.8489 32.2178 34.2318 33.2154 33.2296C34.2129 32.2273 34.8271 31.2229 35.2847 30.0371C35.7282 28.8923 36.0295 27.583 36.1127 25.6685C36.1965 23.7472 36.2163 23.1337 36.207 18.2464C36.1976 13.359 36.1757 12.7463 36.0846 10.8268C35.9935 8.90726 35.6886 7.6037 35.2397 6.45926C34.7771 5.27594 34.1597 4.27406 33.1581 3.27506C32.1566 2.27606 31.1515 1.66226 29.966 1.20578C28.8205 0.762623 27.5119 0.460583 25.596 0.377783C23.6801 0.294983 23.0634 0.273743 18.1749 0.283103C13.2865 0.292463 12.6745 0.313343 10.7546 0.406943ZM10.9649 32.9466C9.20986 32.8703 8.25694 32.5787 7.6219 32.3346C6.78094 32.0106 6.1819 31.6189 5.54902 30.9922C4.91614 30.3654 4.52734 29.7642 4.19902 28.9251C3.95242 28.29 3.65542 27.3382 3.57334 25.5832C3.48406 23.6863 3.46534 23.1168 3.4549 18.3112C3.44446 13.5055 3.46282 12.9367 3.54598 11.0392C3.62086 9.28562 3.91426 8.33162 4.15798 7.69694C4.48198 6.8549 4.87222 6.25694 5.50042 5.62442C6.12862 4.9919 6.72802 4.60238 7.5679 4.27406C8.20222 4.02638 9.15406 3.7319 10.9083 3.64838C12.8066 3.55838 13.3754 3.54038 18.1803 3.52994C22.9853 3.5195 23.5555 3.5375 25.4545 3.62102C27.2081 3.69734 28.1624 3.98786 28.7964 4.23302C29.6377 4.55702 30.2364 4.94618 30.8689 5.57546C31.5014 6.20474 31.8913 6.80198 32.2196 7.64366C32.4677 8.27618 32.7621 9.22766 32.8449 10.983C32.9353 12.8813 32.9558 13.4505 32.9645 18.255C32.9731 23.0596 32.9562 23.6302 32.873 25.527C32.7963 27.282 32.5055 28.2353 32.261 28.8711C31.937 29.7117 31.5464 30.3111 30.9179 30.9432C30.2893 31.5754 29.6906 31.9649 28.8504 32.2932C28.2168 32.5405 27.2639 32.8357 25.511 32.9193C23.6127 33.0085 23.0439 33.0273 18.2372 33.0377C13.4305 33.0481 12.8635 33.0287 10.9652 32.9466M25.6388 8.66066C25.6395 9.0879 25.7669 9.50533 26.0049 9.86016C26.2429 10.215 26.5807 10.4913 26.9757 10.6541C27.3707 10.8169 27.8051 10.8589 28.224 10.7748C28.6429 10.6907 29.0274 10.4843 29.329 10.1816C29.6305 9.87895 29.8355 9.49367 29.9181 9.07448C30.0007 8.6553 29.9571 8.22104 29.7928 7.82664C29.6286 7.43224 29.351 7.0954 28.9953 6.85874C28.6396 6.62207 28.2217 6.49621 27.7945 6.49706C27.2218 6.49821 26.6729 6.72678 26.2687 7.13251C25.8644 7.53824 25.6379 8.08792 25.6388 8.66066ZM8.96722 18.2989C8.9773 23.4037 13.1231 27.5326 18.2268 27.5229C23.3305 27.5131 27.4622 23.3677 27.4525 18.2629C27.4428 13.1581 23.2959 9.02822 18.1915 9.0383C13.0871 9.04838 8.9575 13.1949 8.96722 18.2989ZM12.2094 18.2925C12.207 17.1058 12.5566 15.945 13.214 14.957C13.8713 13.969 14.8069 13.1981 15.9024 12.7418C16.9979 12.2855 18.204 12.1642 19.3684 12.3935C20.5328 12.6227 21.603 13.192 22.4438 14.0295C23.2846 14.8669 23.8582 15.9349 24.092 17.0984C24.3258 18.2618 24.2094 19.4685 23.7574 20.5658C23.3055 21.663 22.5383 22.6016 21.5529 23.2629C20.5674 23.9242 19.4081 24.2783 18.2214 24.2807C17.4334 24.2824 16.6528 24.1288 15.9242 23.8287C15.1956 23.5287 14.5332 23.088 13.975 22.5319C13.4167 21.9758 12.9734 21.3152 12.6705 20.5878C12.3675 19.8604 12.2108 19.0804 12.2094 18.2925Z" fill="white"/>
</g>
<defs>
<clipPath id="clip0_13_91">
<rect width="36" height="36" fill="white" transform="translate(0.209595 0.280945)"/>
</clipPath>
</defs>
</svg>
