<svg width="36" height="36" viewBox="0 0 36 36" fill="none" xmlns="http://www.w3.org/2000/svg">
<path d="M30.6756 30.3721H25.3416V22.101C25.3416 20.1287 25.306 17.5897 22.5673 17.5897C19.7891 17.5897 19.3641 19.7386 19.3641 21.9574V30.3715H14.03V13.3628H19.1507V15.6872H19.2224C19.7348 14.8196 20.4754 14.1059 21.3651 13.6221C22.2548 13.1383 23.2604 12.9024 24.2748 12.9397C29.6811 12.9397 30.6779 16.4607 30.6779 21.0414L30.6756 30.3721ZM8.01136 11.0378C7.39914 11.0379 6.80063 10.8583 6.29152 10.5216C5.78242 10.1849 5.38562 9.70627 5.15123 9.14627C4.91684 8.58626 4.85541 7.97002 4.97474 7.37545C5.09407 6.78089 5.3888 6.23472 5.82162 5.806C6.25445 5.37729 6.80595 5.08528 7.40638 4.96691C8.00682 4.84854 8.6292 4.90913 9.19486 5.14101C9.76052 5.37288 10.244 5.76564 10.5843 6.26961C10.9245 6.77357 11.1061 7.36612 11.1062 7.97231C11.1063 8.3748 11.0263 8.77337 10.8708 9.14525C10.7153 9.51713 10.4874 9.85505 10.2 10.1397C9.91263 10.4244 9.57141 10.6502 9.19588 10.8043C8.82035 10.9584 8.41786 11.0377 8.01136 11.0378ZM10.6784 30.3721H5.33877V13.3628H10.6784V30.3721ZM33.3349 0.00322959H2.65841C1.96214 -0.00455043 1.2912 0.261692 0.793083 0.743452C0.294966 1.22521 0.0104202 1.88307 0.00192261 2.57248V33.0728C0.0101294 33.7626 0.294508 34.4209 0.792608 34.9032C1.29071 35.3854 1.96179 35.6522 2.65841 35.6448H33.3349C34.0329 35.6535 34.7058 35.3875 35.2059 34.9053C35.706 34.423 35.9923 33.764 36.0019 33.0728V2.57028C35.992 1.87951 35.7055 1.2209 35.2054 0.739148C34.7053 0.2574 34.0325 -0.0080824 33.3349 0.00102805" fill="white"/>
</svg>
