<svg width="16" height="16" viewBox="0 0 16 16" fill="none" xmlns="http://www.w3.org/2000/svg">
<path d="M15.5556 0L15.4133 0.0266666L10.6667 1.86667L5.33333 0L0.32 1.68889C0.133333 1.75111 0 1.91111 0 2.11556V15.5556C0 15.8044 0.195556 16 0.444444 16L0.586667 15.9733L5.33333 14.1333L10.6667 16L15.68 14.3111C15.8667 14.2489 16 14.0889 16 13.8844V0.444444C16 0.195556 15.8044 0 15.5556 0ZM6.22222 2.19556L9.77778 3.44V13.8044L6.22222 12.56V2.19556ZM1.77778 3.07556L4.44444 2.17778V12.5778L1.77778 13.6089V3.07556ZM14.2222 12.9244L11.5556 13.8222V3.43111L14.2222 2.4V12.9244Z" fill="black"/>
</svg>
