<svg width="41" height="72" viewBox="0 0 41 72" fill="none" xmlns="http://www.w3.org/2000/svg">
<path d="M21.92 31.6C12.84 29.24 9.92 26.8 9.92 23C9.92 18.64 13.96 15.6 20.72 15.6C27.84 15.6 30.48 19 30.72 24H39.56C39.28 17.12 35.08 10.8 26.72 8.76V0H14.72V8.64C6.96 10.32 0.719999 15.36 0.719999 23.08C0.719999 32.32 8.36 36.92 19.52 39.6C29.52 42 31.52 45.52 31.52 49.24C31.52 52 29.56 56.4 20.72 56.4C12.48 56.4 9.24 52.72 8.8 48H0C0.48 56.76 7.04 61.68 14.72 63.32V72H26.72V63.4C34.52 61.92 40.72 57.4 40.72 49.2C40.72 37.84 31 33.96 21.92 31.6Z" fill="#E7E4E2"/>
</svg>
