<svg width="74" height="74" viewBox="0 0 74 74" fill="none" xmlns="http://www.w3.org/2000/svg">
<path d="M60.7845 8.46196C55.1544 3.77585 48.1759 0.707973 40.4556 0V6.77631C46.2879 7.41686 51.6146 9.74305 55.9973 13.2492L60.7845 8.46196Z" fill="#E7E4E2"/>
<path d="M33.713 6.77631V0C25.9927 0.67426 19.0141 3.77585 13.3841 8.46196L18.1713 13.2492C22.554 9.74305 27.8806 7.41686 33.713 6.77631Z" fill="#E7E4E2"/>
<path d="M13.4178 18.0027L8.63052 13.2155C3.94442 18.8456 0.876537 25.8241 0.168565 33.5444H6.94487C7.58542 27.7121 9.91162 22.3854 13.4178 18.0027Z" fill="#E7E4E2"/>
<path d="M67.2237 33.5444H74C73.292 25.8241 70.2241 18.8456 65.538 13.2155L60.7508 18.0027C64.2569 22.3854 66.5831 27.7121 67.2237 33.5444Z" fill="#E7E4E2"/>
<path d="M20.2278 36.9157L31.8251 42.1749L37.0843 53.7722L42.3435 42.1749L53.9408 36.9157L42.3435 31.6565L37.0843 20.0592L31.8251 31.6565L20.2278 36.9157Z" fill="#E7E4E2"/>
<path d="M37.0843 67.2574C26.5995 67.2574 17.3622 61.897 11.9344 53.7722H20.2278V47.0296H0V67.2574H6.7426V58.1549C13.4515 67.7294 24.5093 74 37.0843 74C53.5025 74 67.426 63.313 72.2806 48.513L65.6729 46.9959C61.5262 58.7617 50.2998 67.2574 37.0843 67.2574Z" fill="#E7E4E2"/>
</svg>
