<svg width="80" height="72" viewBox="0 0 80 72" fill="none" xmlns="http://www.w3.org/2000/svg">
<path d="M32 32C40.84 32 48 24.84 48 16C48 7.16 40.84 0 32 0C23.16 0 16 7.16 16 16C16 24.84 23.16 32 32 32ZM32 8C36.4 8 40 11.6 40 16C40 20.4 36.4 24 32 24C27.6 24 24 20.4 24 16C24 11.6 27.6 8 32 8Z" fill="#E7E4E2"/>
<path d="M8 56C8.88 53.12 21.24 48 32 48C32 45.2 32.52 42.52 33.4 40.04C22.48 39.64 0 45.08 0 56V64H38.16C36.08 61.68 34.44 59 33.4 56H8Z" fill="#E7E4E2"/>
<path d="M69.72 56.08C71.16 53.72 72 50.96 72 48C72 39.16 64.84 32 56 32C47.16 32 40 39.16 40 48C40 56.84 47.16 64 56 64C58.96 64 61.72 63.12 64.08 61.72C67.8 65.44 70.56 68.2 74.36 72L80 66.36C74 60.36 76.84 63.16 69.72 56.08ZM56 56C51.6 56 48 52.4 48 48C48 43.6 51.6 40 56 40C60.4 40 64 43.6 64 48C64 52.4 60.4 56 56 56Z" fill="#E7E4E2"/>
</svg>
