<svg width="46" height="72" viewBox="0 0 46 72" fill="none" xmlns="http://www.w3.org/2000/svg">
<path d="M0 63.12L1 72L7.48 65.84L18.56 35.44C15.84 34.76 13.44 33.4 11.48 31.52L0 63.12Z" fill="#E7E4E2"/>
<path d="M33.64 31.52C31.68 33.4 29.24 34.76 26.56 35.44L37.64 65.84L44.12 72L45.16 63.12L33.64 31.52Z" fill="#E7E4E2"/>
<path d="M34.56 20C34.56 14.8 31.2 10.4 26.56 8.72V0H18.56V8.72C13.92 10.4 10.56 14.8 10.56 20C10.56 26.64 15.92 32 22.56 32C29.2 32 34.56 26.64 34.56 20ZM22.56 24C20.36 24 18.56 22.2 18.56 20C18.56 17.8 20.36 16 22.56 16C24.76 16 26.56 17.8 26.56 20C26.56 22.2 24.76 24 22.56 24Z" fill="#E7E4E2"/>
</svg>
