<svg width="36" height="36" viewBox="0 0 36 36" fill="none" xmlns="http://www.w3.org/2000/svg">
<g clip-path="url(#clip0_13_89)">
<path fill-rule="evenodd" clip-rule="evenodd" d="M30.5847 5.22751C27.2197 1.85818 22.7442 0.00170945 17.9757 0C8.14982 0 0.152996 7.99598 0.149577 17.8245C0.147868 20.9664 0.969261 24.0332 2.52914 26.7359L0 35.9737L9.44986 33.495C12.0533 34.9156 14.9851 35.6635 17.9681 35.6644H17.9757C27.8 35.6644 35.7977 27.6675 35.8011 17.839C35.8028 13.0757 33.9506 8.59771 30.5847 5.22836V5.22751ZM17.9757 32.654H17.9698C15.3115 32.6532 12.7038 31.9386 10.4286 30.589L9.88749 30.2676L4.27962 31.7386L5.77625 26.2709L5.4241 25.7102C3.94115 23.3512 3.15736 20.6245 3.15907 17.8254C3.16249 9.65671 9.80885 3.01035 17.9818 3.01035C21.9391 3.01206 25.659 4.55485 28.4564 7.35578C31.254 10.1559 32.7933 13.8791 32.7916 17.8373C32.7881 26.0068 26.1419 32.6532 17.9757 32.6532V32.654ZM26.1025 21.5579C25.6572 21.3349 23.4674 20.2579 23.0588 20.1092C22.6503 19.9604 22.3537 19.8861 22.0571 20.3322C21.7605 20.7785 20.9067 21.7819 20.6468 22.0784C20.3869 22.3759 20.1271 22.4127 19.6818 22.1895C19.2365 21.9665 17.8014 21.4964 16.0997 19.9792C14.7757 18.798 13.8816 17.3399 13.6218 16.8936C13.362 16.4475 13.5945 16.2065 13.8166 15.9851C14.0166 15.7851 14.262 15.4646 14.485 15.2047C14.7082 14.9449 14.7817 14.7586 14.9304 14.462C15.0791 14.1645 15.0047 13.9048 14.8937 13.6816C14.7825 13.4585 13.8919 11.2661 13.5201 10.3747C13.1585 9.50628 12.791 9.62423 12.5184 9.6097C12.2585 9.59687 11.9619 9.59432 11.6645 9.59432C11.3671 9.59432 10.8849 9.70543 10.4764 10.1516C10.0679 10.5977 8.91737 11.6755 8.91737 13.8671C8.91737 16.0586 10.5132 18.1775 10.7363 18.475C10.9593 18.7724 13.8773 23.2708 18.345 25.2008C19.4075 25.6597 20.2374 25.9341 20.8844 26.1393C21.9512 26.4786 22.9221 26.4308 23.6896 26.3162C24.5452 26.188 26.3248 25.2384 26.6957 24.1982C27.0666 23.1579 27.0666 22.2656 26.9555 22.0801C26.8445 21.8947 26.547 21.7827 26.1017 21.5596L26.1025 21.5579Z" fill="black"/>
</g>
<defs>
<clipPath id="clip0_13_89">
<rect width="35.8011" height="36" fill="white"/>
</clipPath>
</defs>
</svg>
