<svg width="63" height="32" viewBox="0 0 63 32" fill="none" xmlns="http://www.w3.org/2000/svg">
<g clip-path="url(#clip0_12_505)" filter="url(#filter0_d_12_505)">
<path d="M46.9285 9.95122C45.7283 9.92195 44.6306 10.6829 44.6306 11.7366C44.6306 12.1756 44.777 12.8049 45.6405 12.8049C46.9285 12.8049 48.1433 11.8537 48.1433 10.8585C48.1433 10.2439 47.5579 9.96585 46.9285 9.95122ZM48.8459 13.3902C48.7581 13.3171 48.6702 13.2293 48.5824 13.1415C48.4507 13.0098 48.319 12.9951 48.1726 13.1122C47.9677 13.2585 47.7189 13.3902 47.4701 13.5073C47.3383 13.5805 47.3676 13.6829 47.514 13.6829C47.8799 13.6683 48.2458 13.6683 48.6117 13.6537C48.8898 13.639 48.9922 13.522 48.8459 13.3902ZM12.9282 5.78049C13.4697 5.78049 13.8649 6.0878 13.8649 6.6C13.8649 7.12683 13.4405 7.72683 12.855 7.72683C12.2696 7.72683 11.9768 7.25854 11.9768 6.79024C11.9768 6.29268 12.2842 5.78049 12.9282 5.78049ZM51.9341 10.0829C53.1636 7.17073 54.6419 3.0878 55.4908 0.980488C55.725 0.395122 55.9299 0 56.3543 0C56.7056 0 57.0569 0.292683 57.0569 0.892683C57.0569 1.60976 56.5885 2.32683 55.2273 5.60488C54.3931 7.65366 53.6173 9.49756 53.6173 9.83415C53.6173 9.98049 53.6905 10.0683 53.8369 10.0683C54.1589 10.0683 54.7004 9.76098 55.242 9.45366C55.7689 9.16098 56.2958 8.86829 56.6763 8.86829C57.0569 8.86829 57.5399 9.0878 57.5252 9.6439C57.5106 10.3463 56.2226 10.5073 53.4417 11.722C52.6806 12.0439 52.5781 12.6293 52.5781 12.9805C52.5781 13.5512 53.1051 13.5512 54.2613 13.5512C55.4469 13.5512 56.6324 13.4634 57.4374 13.4634C58.2278 13.4634 58.8572 13.8293 58.8572 14.2976C58.8572 14.839 58.2278 14.839 56.9105 14.839C56.0323 14.839 54.0418 14.8537 52.0366 14.8537C50.0607 14.8537 47.3383 14.8683 45.3039 14.8683C43.2694 14.8683 39.903 14.8829 37.81 14.8976C35.717 14.9122 29.8332 14.839 28.2086 14.8244C26.5839 14.8098 22.515 14.8829 21.6954 14.8683C20.8757 14.8537 15.6359 14.9122 12.5476 14.9122C11.8158 14.9122 10.8937 14.7366 10.5278 15.5854C10.118 16.5366 9.76673 17.3415 9.53255 17.9122C8.69828 19.9463 8.42019 20.9268 8.09819 21.7902C7.95182 22.1561 7.8201 22.522 7.67373 22.8878C7.46882 23.3854 7.23464 24 6.67846 24C6.34182 24 6.093 23.6488 6.093 23.239C6.093 22.9756 6.21009 22.7122 6.37109 22.3171C6.78091 21.2927 7.17609 20.2829 7.58591 19.2585C8.025 18.1902 8.61046 16.4341 8.90319 15.5415C9.09346 14.9707 8.39091 14.839 7.4981 14.839C6.72237 14.839 5.84418 14.9561 5.34655 14.9561C4.60009 14.9561 4 14.4146 4 14.0195C4 13.6683 4.40982 13.4488 4.89282 13.4488C5.78564 13.4488 6.95655 13.5073 8.1421 13.5073C8.66901 13.5073 9.66428 13.522 10.0302 12.761C10.1619 12.4829 10.5717 11.4585 10.5717 11.1073C10.5717 10.9171 10.44 10.7854 10.2058 10.7854C9.92773 10.7854 9.02028 11.239 8.71291 11.3707C8.3031 11.5463 7.20537 12.0585 6.69309 12.0585C6.23937 12.0585 5.90273 11.8098 5.90273 11.4878C5.90273 10.8 7.99573 10.2439 9.18128 9.74634C10.4254 9.21951 11.5231 8.72195 11.9768 8.72195C12.4452 8.72195 12.8404 8.86829 12.8404 9.32195C12.8404 9.67317 11.6402 12.278 11.6402 12.8634C11.6402 13.2439 11.889 13.4195 12.5769 13.4195C12.8989 13.4195 12.9428 13.1561 12.9428 12.9073C12.9428 12.2195 13.1624 11.122 13.5429 10.3317C13.7625 9.84878 14.304 8.83902 15.1383 8.83902C15.753 8.83902 15.8847 9.17561 15.8994 9.40976C15.8994 9.89268 15.3871 10.1268 14.8895 11.0195C14.5821 11.561 14.3479 12.1756 14.3626 12.7317C14.3626 13.0829 14.6553 13.3171 14.948 13.3171C15.3286 13.3171 15.8116 13.2878 16.7776 12.0439C17.5679 10.9902 17.6265 10.3317 17.685 9.86341C17.7728 9.17561 18.168 8.85366 18.8706 8.85366C19.2218 8.85366 19.4267 9.14634 19.4414 9.58537C19.456 10.522 18.7827 11.8537 18.168 12.6585C18.0656 12.7902 17.6557 13.2 17.6557 13.3317C17.6557 13.4634 17.7289 13.5073 18.2997 13.5073C18.5339 13.5073 18.5486 13.3463 18.6657 13.1122C18.7974 12.8634 19.0462 12.761 19.295 12.761C19.6463 12.761 20.6855 13.0683 21.1246 13.0683C21.5929 13.0683 22.0467 12.9805 22.0467 12.4829C22.0467 12.1024 21.549 11.8098 21.2124 11.6634C20.8904 11.5171 20.2171 11.0634 20.2171 10.3902C20.2171 9.07317 22.8663 8.76585 24.0811 8.76585C24.5934 8.76585 24.7251 8.9561 24.7251 9.23415C24.7251 9.77561 24.2128 10.1268 23.5396 10.1268C23.0712 10.1268 22.193 10.1415 22.193 10.639C22.193 11.0049 22.9102 11.3561 23.2322 11.6195C23.5688 11.839 23.8762 12.1317 23.8762 12.8341C23.8762 13.3463 23.5396 13.5659 24.1397 13.5659C24.2275 13.5659 24.3153 13.5659 24.4178 13.5659C24.608 13.5659 24.6519 13.4634 24.6227 13.2732C24.608 13.1854 24.5934 13.0829 24.5934 12.9659C24.5495 12.2341 27.9598 10.6244 27.9598 10.2732C27.9598 10.1122 27.8573 10.1415 27.7256 10.1415C27.5499 10.1415 27.0962 10.2732 26.701 10.2732C26.3058 10.2732 25.5594 10.1415 25.5301 9.46829C25.5008 8.75122 28.6916 8.72195 29.6576 8.72195C30.2577 8.72195 30.4187 9.13171 30.4187 9.49756C30.4187 9.80488 30.3748 9.92195 29.7308 10.5366C29.2478 11.0195 28.5159 11.4878 27.8719 12.0146C27.2279 12.5415 26.6718 12.922 26.6718 13.0829C26.6718 13.2439 26.8767 13.2878 27.2133 13.2878C27.8427 13.2878 28.8379 12.878 29.4088 12.878C29.8478 12.878 30.2138 13.0537 30.3455 13.4341C30.3894 13.5073 30.4333 13.5512 30.5211 13.5512C30.6382 13.5512 30.7407 13.5512 30.8431 13.5512C31.0188 13.5512 31.048 13.4341 30.9456 13.2439C30.7114 12.8049 30.6089 12.2634 30.6089 11.7659C30.6089 10.5805 31.8238 8.69268 34.3412 8.69268C35.0877 8.69268 36.3171 9.10244 36.3171 9.81951C36.3171 10.2 35.8927 10.5366 35.5121 10.5366C35.1755 10.5366 34.5754 10.1707 33.9899 10.1707C32.9947 10.1707 32.1458 10.8732 32.1458 11.7659C32.1458 12.6439 32.6873 12.8634 33.2289 12.8634C34.59 12.8634 34.9999 12.1463 35.556 12.1463C35.9366 12.1463 36.0683 12.3805 36.0537 12.761C36.0537 12.8927 35.9805 13.0537 35.8634 13.2146C35.7317 13.4049 35.7609 13.5366 36.0098 13.5512C36.1269 13.5512 36.2586 13.5512 36.3757 13.5512C36.5806 13.5512 36.683 13.4927 36.6538 13.361C36.6391 13.2878 36.6245 13.2146 36.6245 13.1415C36.6245 12.7463 37.4441 12.1317 38.3662 11.561C39.3176 10.961 40.225 10.3902 40.225 10.1854C40.225 10.0537 40.1519 10.0537 40.0494 10.0537C39.6396 10.0537 38.82 10.2585 38.0881 10.2585C37.5319 10.2585 37.1368 9.77561 37.1368 9.43902C37.1368 8.76585 39.0395 8.9122 39.7274 8.83902C40.43 8.76585 41.1618 8.63415 41.8936 8.63415C42.684 8.63415 42.8742 8.89756 42.8742 9.39512C42.8742 9.89268 41.9082 10.6976 41.352 11.0488C40.6788 11.5024 39.0395 12.5415 39.0395 12.922C39.0395 13.1561 39.1419 13.2 39.2883 13.2293C40.4592 13.2585 40.9422 12.7024 41.6448 12.7024C41.9082 12.7024 42.5376 12.7756 42.5376 13.3317C42.5376 13.4049 42.523 13.4634 42.523 13.5366C42.523 13.6098 42.6254 13.6244 42.801 13.6244C42.9181 13.6244 43.0499 13.6244 43.1816 13.6244C43.4743 13.6244 43.3572 13.4049 43.2694 13.2146C43.0938 12.878 43.0645 12.4829 43.0938 12.0146C43.2401 9.98049 44.9233 8.51707 47.2066 8.56098C47.6018 8.56098 48.0701 8.66341 48.5092 8.89756C48.6849 9 48.802 8.98537 48.9483 8.9122C49.0801 8.83902 49.2411 8.80976 49.4606 8.80976C49.8704 8.82439 50.0314 9.10244 50.0168 9.43902C50.0021 10.2878 49.7094 10.8146 49.6948 11.3415C49.6801 11.8976 49.9875 12.2488 50.2949 12.5415C50.5291 12.7756 50.7779 12.7317 50.9096 12.439C51.2609 11.7073 51.7878 10.4488 51.9341 10.0829Z" fill="white"/>
</g>
<defs>
<filter id="filter0_d_12_505" x="0" y="0" width="62.8572" height="32" filterUnits="userSpaceOnUse" color-interpolation-filters="sRGB">
<feFlood flood-opacity="0" result="BackgroundImageFix"/>
<feColorMatrix in="SourceAlpha" type="matrix" values="0 0 0 0 0 0 0 0 0 0 0 0 0 0 0 0 0 0 127 0" result="hardAlpha"/>
<feOffset dy="4"/>
<feGaussianBlur stdDeviation="2"/>
<feComposite in2="hardAlpha" operator="out"/>
<feColorMatrix type="matrix" values="0 0 0 0 0 0 0 0 0 0 0 0 0 0 0 0 0 0 0.25 0"/>
<feBlend mode="normal" in2="BackgroundImageFix" result="effect1_dropShadow_12_505"/>
<feBlend mode="normal" in="SourceGraphic" in2="effect1_dropShadow_12_505" result="shape"/>
</filter>
<clipPath id="clip0_12_505">
<rect width="54.8572" height="24" fill="white" transform="translate(4)"/>
</clipPath>
</defs>
</svg>
