<svg width="236" height="56" viewBox="0 0 236 56" fill="none" xmlns="http://www.w3.org/2000/svg">
<path d="M76.6213 26.474H76.5728L70.3904 0.710449H66.0689V1.19735H68.3011V30.805H65.866V31.2906H71.4012V30.805H68.8487V3.54623H68.9495L75.747 31.9999H75.9997L82.0902 3.59096H82.191V30.805H80.1196V31.2906H86.3364V30.805H84.1374V1.19735H86.3364V0.710449H82.1017L76.6213 26.474Z" fill="black"/>
<path d="M22.7707 16.8026C22.1555 16.0933 21.3425 15.3406 20.3317 14.5419C19.2022 13.6268 18.3305 12.8435 17.7166 12.193C17.1014 11.5438 16.6215 10.7744 16.2756 9.88882C15.9298 9.00192 15.7575 7.90927 15.7575 6.60959C15.7575 4.80767 16.0689 3.15655 16.693 2.10735C17.3158 1.05943 18.1505 0.534185 19.1945 0.534185C20.7592 0.534185 21.8607 1.86582 22.4976 3.01342C23.1344 4.16102 23.8147 6.05495 23.8198 6.74377L23.8402 10.1955H24.4197V0.710543H23.8402V4.75911C23.331 2.9099 22.4363 1.43259 21.2289 0.621086C20.6252 0.214697 19.9858 0 19.2953 0C18.3011 0 17.4128 0.361661 16.6292 1.08626C15.8455 1.81086 15.2303 2.81534 14.7849 4.09968C14.3382 5.3853 14.1149 6.50991 14.1149 8.13546C14.1149 9.76102 14.3216 11.0824 14.7339 12.1904C15.1461 13.2984 15.6643 14.2006 16.2884 14.8933C16.9112 15.5885 17.6872 16.2888 18.6138 16.9981C19.742 17.8556 20.6189 18.6083 21.2417 19.2588C21.8645 19.9093 22.3572 20.6927 22.7196 21.6077C23.0821 22.524 23.2633 23.646 23.2633 24.9764C23.2633 26.8677 22.9226 28.6965 22.2397 29.8045C21.5569 30.9125 20.6099 31.4671 19.3974 31.4671C17.7868 31.4671 16.781 30.3859 15.9757 29.0888C15.5532 28.4077 14.6203 26.4665 14.6203 24.4728V21.4058H14V31.7751H14.6216V27.3572C14.8066 28.5022 15.5724 29.6971 16.3318 30.5802C17.4345 31.862 18.7121 31.9987 19.3477 31.9987C20.3917 31.9987 21.331 31.6141 22.1657 30.846C22.9991 30.078 23.6526 29.0224 24.1248 27.6767C24.5958 26.3323 24.8319 24.8038 24.8319 23.0901C24.8319 21.554 24.643 20.4869 24.2627 19.4377C23.8836 18.3898 23.3871 17.5093 22.772 16.8013L22.7707 16.8026Z" fill="black"/>
<path d="M49.4005 0.710507H54.7827V1.19869H52.5594L48.5569 15.8504L48.2034 14.7719L51.8485 1.19869H49.4005V0.710507ZM47.6061 19.0006L42.0721 1.19741H44.3975V0.709229H38.1053V1.19741H40.1091L45.661 19.1936V30.8051H43.4619V31.2907H49.8051V30.8051H47.6061V19.0006Z" fill="black"/>
<path d="M186.108 1.06444L188.18 1.06828V30.8139L186.108 30.805V31.2906H192.199V30.805L190.126 30.8139V1.06828L192.199 1.06444V0.710449H186.108V1.06444Z" fill="black"/>
<path d="M219.95 30.8051L213.534 0.0817871H212.914L206.34 30.8051H204.108V31.2907H209.491V30.8051H206.91L208.744 22.239L209.953 16.5879L212.423 5.00064H212.524L215.353 18.5176H211.444L211.342 19.0006H215.458L217.929 30.8051H215.809V31.2907H222V30.8051H219.95Z" fill="black"/>
<path d="M114.4 21.9834H114.733L114.101 31.2907H101.718V30.8051H103.791V1.19741H101.718V0.709229H114.126L114.48 9.0415H114.054L112.531 1.19741H105.737V30.8038H112.269L114.401 21.9834H114.4ZM110.589 15.4747V19.8671H111.145V10.4242H110.589V14.9099H107.771V15.4735H110.589V15.4747Z" fill="black"/>
<path d="M171.158 30.8052L166.031 16.7541H166.005C167.218 16.2518 168.144 15.3356 168.785 14.0065C169.424 12.6774 169.745 10.9777 169.745 8.91C169.745 6.25057 169.223 4.2199 168.177 2.81671C167.132 1.41351 165.616 0.711914 163.629 0.711914H157.234V1.20009H159.307V30.8065H157.234V31.2921H163.451V30.8065H161.252V1.19754H163.552C164.883 1.19754 165.878 1.87741 166.534 3.1477C167.191 4.41798 167.519 6.36814 167.519 8.99818C167.519 11.6282 167.195 13.526 166.546 14.7822C165.985 15.8697 165.16 16.4857 164.074 16.6314L163.69 16.648L168.798 30.8052H166.853V31.2908H173.396V30.8052H171.155H171.158Z" fill="black"/>
<path d="M129.691 0.710449L128.837 9.04271H129.28L131.215 1.19735H132.139H135.475V30.805H132.745V31.2906H140.15V30.805H137.42V1.19735H141.11H141.998L143.771 9.04271H144.21L143.729 0.710449H129.691Z" fill="black"/>
<path d="M65.1881 55.9073H64.2752L59.2236 48.2808V55.9073H58.3093V46.8403H59.2236L64.2752 54.4538V46.8403H65.1881V55.9073Z" fill="#68635D"/>
<path d="M69.4823 46.8418V55.9088H68.5679V46.8418H69.4823Z" fill="#68635D"/>
<path d="M73.7751 47.5802V50.9649H77.2334V51.7177H73.7751V55.1546H77.6259V55.9074H72.8622V46.8274H77.6259V47.5802H73.7751Z" fill="#68635D"/>
<path d="M85.5878 55.9073L83.3302 52.1201H81.6468V55.9073H80.7324V46.8403H83.4726C84.4902 46.8403 85.2621 47.0821 85.7898 47.5671C86.3161 48.0521 86.5792 48.6876 86.5792 49.4737C86.5792 50.131 86.3902 50.6912 86.0108 51.153C85.6328 51.6163 85.0731 51.916 84.3332 52.055L86.6824 55.9073H85.5863H85.5878ZM81.6453 51.3803H83.4857C84.1995 51.3803 84.7359 51.208 85.0979 50.862C85.4584 50.516 85.6401 50.0542 85.6401 49.4737C85.6401 48.8932 85.4656 48.4169 85.1182 48.0926C84.7708 47.7683 84.2213 47.6062 83.4741 47.6062H81.6468V51.3803H81.6453Z" fill="#68635D"/>
<path d="M90.5725 46.8418V52.5486C90.5725 53.4477 90.7877 54.1136 91.218 54.5465C91.6482 54.9793 92.2384 55.195 92.9871 55.195C93.7357 55.195 94.3201 54.9808 94.7432 54.5523C95.1647 54.1237 95.3755 53.4563 95.3755 52.5486V46.8418H96.2884V52.5356C96.2884 53.6865 95.9817 54.5508 95.3682 55.1299C94.7548 55.709 93.9567 55.9985 92.9726 55.9985C91.9884 55.9985 91.1903 55.709 90.5783 55.1299C89.9649 54.5508 89.6581 53.6865 89.6581 52.5356V46.8418H90.5725Z" fill="#68635D"/>
<path d="M99.8005 48.9742C100.192 48.2692 100.726 47.7205 101.405 47.3267C102.084 46.933 102.842 46.7361 103.676 46.7361C104.694 46.7361 105.566 46.9764 106.293 47.4556C107.02 47.9348 107.547 48.6123 107.879 49.4853H106.809C106.547 48.8714 106.15 48.3908 105.614 48.0463C105.079 47.7003 104.432 47.528 103.676 47.528C103.006 47.528 102.404 47.6843 101.868 47.9956C101.331 48.3068 100.913 48.7542 100.609 49.3376C100.303 49.921 100.152 50.5986 100.152 51.3673C100.152 52.136 100.305 52.8121 100.609 53.3912C100.913 53.9702 101.333 54.4161 101.868 54.7274C102.403 55.0387 103.006 55.195 103.676 55.195C104.433 55.195 105.079 55.0242 105.614 54.6825C106.149 54.3409 106.547 53.8675 106.809 53.2623H107.879C107.547 54.1266 107.017 54.7969 106.287 55.2732C105.556 55.7495 104.686 55.9869 103.676 55.9869C102.84 55.9869 102.084 55.79 101.405 55.3962C100.726 55.0025 100.192 54.4567 99.8005 53.756C99.4094 53.0553 99.2132 52.2605 99.2132 51.3687C99.2132 50.4769 99.4094 49.6807 99.8005 48.9757V48.9742Z" fill="#68635D"/>
<path d="M117.772 46.8418V55.9088H116.86V51.667H111.913V55.9088H110.998V46.8418H111.913V50.9142H116.86V46.8418H117.772Z" fill="#68635D"/>
<path d="M122.967 55.4078C122.279 55.014 121.738 54.4654 121.341 53.7603C120.946 53.0553 120.747 52.2576 120.747 51.3673C120.747 50.4769 120.945 49.6793 121.341 48.9742C121.737 48.2692 122.279 47.7205 122.967 47.3267C123.654 46.933 124.42 46.7361 125.263 46.7361C126.107 46.7361 126.886 46.933 127.573 47.3267C128.261 47.7205 128.8 48.2692 129.191 48.9742C129.582 49.6793 129.779 50.4769 129.779 51.3673C129.779 52.2576 129.582 53.0553 129.191 53.7603C128.8 54.4654 128.261 55.014 127.573 55.4078C126.886 55.8016 126.115 55.9985 125.263 55.9985C124.412 55.9985 123.654 55.8016 122.967 55.4078ZM127.091 54.7404C127.63 54.4292 128.056 53.9818 128.37 53.3984C128.683 52.815 128.84 52.1389 128.84 51.3687C128.84 50.5986 128.683 49.9254 128.37 49.3448C128.057 48.7658 127.63 48.3199 127.091 48.0086C126.551 47.6974 125.942 47.541 125.263 47.541C124.585 47.541 123.975 47.6974 123.436 48.0086C122.897 48.3199 122.471 48.7658 122.157 49.3448C121.844 49.9239 121.687 50.5986 121.687 51.3687C121.687 52.1389 121.844 52.815 122.157 53.3984C122.469 53.9818 122.897 54.4292 123.436 54.7404C123.975 55.0517 124.585 55.208 125.263 55.208C125.942 55.208 126.551 55.0517 127.091 54.7404Z" fill="#68635D"/>
<path d="M141.67 46.9578V55.9075H140.755V48.7602L137.544 55.9075H136.878L133.667 48.7862V55.9075H132.754V46.9578H133.719L137.204 54.7146L140.688 46.9578H141.667H141.67Z" fill="#68635D"/>
<path d="M146.851 55.4078C146.163 55.014 145.622 54.4654 145.226 53.7603C144.83 53.0553 144.631 52.2576 144.631 51.3673C144.631 50.4769 144.829 49.6793 145.226 48.9742C145.621 48.2692 146.163 47.7205 146.851 47.3267C147.538 46.933 148.304 46.7361 149.148 46.7361C149.991 46.7361 150.77 46.933 151.458 47.3267C152.145 47.7205 152.684 48.2692 153.075 48.9742C153.467 49.6793 153.663 50.4769 153.663 51.3673C153.663 52.2576 153.467 53.0553 153.075 53.7603C152.684 54.4654 152.145 55.014 151.458 55.4078C150.77 55.8016 149.999 55.9985 149.148 55.9985C148.296 55.9985 147.538 55.8016 146.851 55.4078ZM150.975 54.7404C151.514 54.4292 151.94 53.9818 152.254 53.3984C152.567 52.815 152.724 52.1389 152.724 51.3687C152.724 50.5986 152.567 49.9254 152.254 49.3448C151.942 48.7658 151.514 48.3199 150.975 48.0086C150.436 47.6974 149.826 47.541 149.148 47.541C148.469 47.541 147.86 47.6974 147.32 48.0086C146.781 48.3199 146.355 48.7658 146.041 49.3448C145.729 49.9239 145.572 50.5986 145.572 51.3687C145.572 52.1389 145.729 52.815 146.041 53.3984C146.354 53.9818 146.781 54.4292 147.32 54.7404C147.86 55.0517 148.469 55.208 149.148 55.208C149.826 55.208 150.436 55.0517 150.975 54.7404Z" fill="#68635D"/>
<path d="M157.82 55.6873C157.364 55.4803 157.005 55.1907 156.743 54.8187C156.481 54.4466 156.343 54.0326 156.326 53.5737H157.291C157.335 54.0152 157.531 54.4017 157.878 54.7347C158.226 55.0677 158.735 55.2342 159.406 55.2342C160.024 55.2342 160.514 55.0764 160.874 54.7608C161.235 54.4452 161.417 54.0456 161.417 53.5606C161.417 53.1712 161.316 52.8585 161.117 52.6196C160.917 52.3822 160.669 52.2041 160.373 52.0883C160.076 51.971 159.668 51.8436 159.146 51.7061C158.537 51.5425 158.054 51.3818 157.697 51.2269C157.34 51.0706 157.035 50.8288 156.784 50.5002C156.531 50.1716 156.406 49.7257 156.406 49.164C156.406 48.6963 156.528 48.2794 156.771 47.9117C157.015 47.544 157.358 47.2573 157.801 47.0489C158.245 46.8418 158.753 46.7376 159.329 46.7376C160.172 46.7376 160.854 46.9432 161.372 47.3543C161.889 47.7655 162.187 48.2953 162.266 48.9439H161.274C161.213 48.5718 161.008 48.2418 160.661 47.9522C160.313 47.6627 159.842 47.5179 159.251 47.5179C158.703 47.5179 158.246 47.6627 157.88 47.9522C157.515 48.2418 157.332 48.637 157.332 49.1393C157.332 49.5201 157.432 49.827 157.631 50.0601C157.832 50.2932 158.082 50.4712 158.381 50.5914C158.681 50.713 159.088 50.8418 159.601 50.9808C160.193 51.1459 160.671 51.308 161.037 51.4672C161.402 51.6279 161.712 51.8712 161.963 52.1998C162.216 52.5284 162.341 52.97 162.341 53.523C162.341 53.9472 162.228 54.3482 162.002 54.7289C161.776 55.1097 161.441 55.4166 160.998 55.6497C160.555 55.8827 160.024 56 159.406 56C158.788 56 158.277 55.8958 157.82 55.6887V55.6873ZM160.502 44.818L157.826 46.3612V45.6605L160.502 44V44.8165V44.818Z" fill="#68635D"/>
<path d="M165.58 48.9742C165.971 48.2692 166.506 47.7205 167.185 47.3267C167.864 46.933 168.621 46.7361 169.456 46.7361C170.473 46.7361 171.345 46.9764 172.072 47.4556C172.799 47.9348 173.327 48.6123 173.658 49.4853H172.588C172.327 48.8714 171.93 48.3908 171.395 48.0463C170.86 47.7003 170.213 47.528 169.457 47.528C168.787 47.528 168.185 47.6843 167.649 47.9956C167.114 48.3068 166.694 48.7542 166.39 49.3376C166.084 49.921 165.933 50.5986 165.933 51.3673C165.933 52.136 166.086 52.8121 166.39 53.3912C166.694 53.9702 167.114 54.4161 167.649 54.7274C168.184 55.0387 168.785 55.195 169.457 55.195C170.214 55.195 170.86 55.0242 171.395 54.6825C171.93 54.3409 172.328 53.8675 172.588 53.2623H173.658C173.327 54.1266 172.796 54.7969 172.066 55.2732C171.335 55.7495 170.466 55.9869 169.456 55.9869C168.62 55.9869 167.864 55.79 167.185 55.3962C166.506 55.0025 165.971 54.4567 165.58 53.756C165.189 53.0553 164.993 52.2605 164.993 51.3687C164.993 50.4769 165.189 49.6807 165.58 48.9757V48.9742Z" fill="#68635D"/>
<path d="M177.691 46.8418V55.9088H176.778V46.8418H177.691Z" fill="#68635D"/>
</svg>
