<svg width="260" height="40" viewBox="0 0 260 40" fill="none" xmlns="http://www.w3.org/2000/svg">
<path d="M78.2766 33.0927H78.216L70.488 0.888184H65.0861V1.49681H67.8764V38.5064H64.8325V39.1134H71.7516V38.5064H68.5608V4.43291H68.6869L77.1838 40H77.4997L85.1128 4.48882H85.2388V38.5064H82.6495V39.1134H90.4205V38.5064H87.6717V1.49681H90.4205V0.888184H85.1271L78.2766 33.0927Z" fill="black"/>
<path d="M10.9634 21.0032C10.1944 20.1166 9.17814 19.1757 7.91461 18.1773C6.50271 17.0336 5.41308 16.0543 4.64571 15.2412C3.87674 14.4297 3.27688 13.4681 2.84454 12.361C2.41219 11.2524 2.19682 9.88658 2.19682 8.26198C2.19682 6.00959 2.58609 3.94569 3.36622 2.63419C4.14476 1.32428 5.18813 0.667732 6.49314 0.667732C8.44906 0.667732 9.82586 2.33227 10.6219 3.76677C11.418 5.20128 12.2684 7.56869 12.2747 8.42971L12.3003 12.7444H13.0246V0.888179H12.3003V5.94888C11.6637 3.63738 10.5454 1.79074 9.03615 0.776358C8.28155 0.268371 7.48227 0 6.61917 0C5.37638 0 4.26601 0.452077 3.28645 1.35783C2.3069 2.26358 1.53793 3.51917 0.98115 5.1246C0.422772 6.73163 0.143583 8.13738 0.143583 10.1693C0.143583 12.2013 0.402032 13.853 0.917336 15.238C1.43264 16.623 2.08036 17.7508 2.86049 18.6166C3.63903 19.4856 4.60901 20.361 5.76725 21.2476C7.17755 22.3195 8.27357 23.2604 9.05211 24.0735C9.83065 24.8866 10.4465 25.8658 10.8995 27.0096C11.3526 28.155 11.5792 29.5575 11.5792 31.2205C11.5792 33.5847 11.1532 35.8706 10.2997 37.2556C9.44616 38.6406 8.2624 39.3339 6.7468 39.3339C4.73345 39.3339 3.4763 37.9824 2.46963 36.361C1.94156 35.5096 0.775348 33.0831 0.775348 30.5911V26.7572H0V39.7189H0.776943V34.1965C1.00827 35.6278 1.96549 37.1214 2.91473 38.2252C4.29313 39.8275 5.89009 39.9984 6.68458 39.9984C7.98959 39.9984 9.16378 39.5176 10.2072 38.5575C11.2489 37.5975 12.0658 36.278 12.656 34.5959C13.2447 32.9153 13.5399 31.0048 13.5399 28.8626C13.5399 26.9425 13.3038 25.6086 12.8283 24.2971C12.3545 22.9872 11.7339 21.8866 10.965 21.0016L10.9634 21.0032Z" fill="black"/>
<path d="M44.2507 0.888194H50.9783V1.49842H48.1992L43.1961 19.8131L42.7542 18.4649L47.3106 1.49842H44.2507V0.888194ZM42.0076 23.7508L35.0901 1.49682H37.9968V0.886597H30.1317V1.49682H32.6364L39.5763 23.992V38.5064H36.8274V39.1134H44.7564V38.5064H42.0076V23.7508Z" fill="black"/>
<path d="M215.135 1.33068L217.724 1.33547V38.5176L215.135 38.5064V39.1134H222.748V38.5064L220.157 38.5176V1.33547L222.748 1.33068V0.888184H215.135V1.33068Z" fill="black"/>
<path d="M257.438 38.5064L249.418 0.102295H248.643L240.425 38.5064H237.635V39.1135H244.364V38.5064H241.138L243.43 27.7988L244.941 20.7349L248.028 6.25086H248.154L251.691 23.147H246.805L246.677 23.7509H251.822L254.911 38.5064H252.261V39.1135H260V38.5064H257.438Z" fill="black"/>
<path d="M125.5 27.4793H125.916L125.126 39.1134H109.648V38.5064H112.239V1.49682H109.648V0.886597H125.158L125.6 11.3019H125.067L123.164 1.49682H114.672V38.5048H122.837L125.501 27.4793H125.5ZM120.736 19.3435V24.8339H121.431V13.0304H120.736V18.6374H117.213V19.3419H120.736V19.3435Z" fill="black"/>
<path d="M196.447 38.5064L190.038 20.9425H190.007C191.522 20.3147 192.68 19.1693 193.481 17.508C194.281 15.8466 194.681 13.722 194.681 11.1374C194.681 7.81309 194.028 5.27475 192.722 3.52076C191.415 1.76677 189.52 0.889771 187.036 0.889771H179.043V1.49999H181.634V38.508H179.043V39.115H186.814V38.508H184.065V1.4968H186.94C188.604 1.4968 189.847 2.34664 190.667 3.9345C191.489 5.52236 191.899 7.96006 191.899 11.2476C191.899 14.5351 191.493 16.9073 190.683 18.4776C189.981 19.8371 188.95 20.607 187.593 20.7891L187.113 20.8099L193.497 38.5064H191.066V39.1134H199.245V38.5064H196.444H196.447Z" fill="black"/>
<path d="M144.614 0.888184L143.546 11.3035H144.1L146.518 1.49681H147.674H151.844V38.5064H148.431V39.1134H157.688V38.5064H154.275V1.49681H158.887H159.998L162.214 11.3035H162.763L162.161 0.888184H144.614Z" fill="black"/>
</svg>
