<svg width="96" height="96" viewBox="0 0 96 96" fill="none" xmlns="http://www.w3.org/2000/svg">
<g clip-path="url(#clip0_447_2026)">
<path d="M76 12H20C15.6 12 12 15.6 12 20V76C12 80.4 15.6 84 20 84H76C80.4 84 84 80.4 84 76V20C84 15.6 80.4 12 76 12ZM76 76H20V20H76V76Z" fill="#68635D"/>
<path d="M36 48H28V68H36V48Z" fill="#68635D"/>
<path d="M68 28H60V68H68V28Z" fill="#68635D"/>
<path d="M52 56H44V68H52V56Z" fill="#68635D"/>
<path d="M52 40H44V48H52V40Z" fill="#68635D"/>
</g>
<defs>
<clipPath id="clip0_447_2026">
<rect width="96" height="96" fill="white"/>
</clipPath>
</defs>
</svg>
