<svg width="86" height="71" viewBox="0 0 86 71" fill="none" xmlns="http://www.w3.org/2000/svg">
<path d="M39.0909 71L26.6795 59.7583C21.9886 55.4852 17.9662 51.6722 14.6122 48.3194C11.2556 44.9667 8.48664 41.8111 6.30536 38.8528C4.12148 35.8944 2.52527 33.0347 1.51673 30.2736C0.505576 27.5125 0 24.6199 0 21.5958C0 15.4162 2.05227 10.2713 6.15682 6.16122C10.2614 2.05374 15.3758 0 21.5 0C24.8879 0 28.1129 0.723148 31.175 2.16944C34.2371 3.61574 36.8758 5.6537 39.0909 8.28333C41.3061 5.6537 43.9447 3.61574 47.0068 2.16944C50.0689 0.723148 53.2939 0 56.6818 0C61.9591 0 66.3894 1.49494 69.9727 4.48483C73.5561 7.47735 75.9992 11.2417 77.3023 15.7778H68.9955C67.8227 13.1481 66.0962 11.1759 63.8159 9.86111C61.5356 8.5463 59.1576 7.88889 56.6818 7.88889C53.3591 7.88889 50.4924 8.79348 48.0818 10.6027C45.6712 12.4092 43.4235 14.7917 41.3386 17.75H36.8432C34.8235 14.7917 32.5275 12.4092 29.9554 10.6027C27.3806 8.79348 24.5621 7.88889 21.5 7.88889C17.7864 7.88889 14.577 9.18661 11.8719 11.7821C9.16943 14.3801 7.81818 17.6514 7.81818 21.5958C7.81818 23.7653 8.27424 25.9676 9.18636 28.2028C10.0985 30.438 11.7273 33.0189 14.0727 35.9457C16.4182 38.8699 19.6106 42.2871 23.65 46.1973C27.6894 50.1102 32.8364 54.8278 39.0909 60.35C40.7848 58.838 42.772 57.0958 45.0523 55.1236C47.3326 53.1514 49.1568 51.5079 50.525 50.1931L51.4045 51.0806L53.3083 53.0054L55.2159 54.9264L56.0955 55.8139C54.6621 57.1287 52.8379 58.7551 50.6227 60.6932C48.4076 62.6338 46.453 64.3602 44.7591 65.8722L39.0909 71ZM66.4545 55.2222V43.3889H54.7273V35.5H66.4545V23.6667H74.2727V35.5H86V43.3889H74.2727V55.2222H66.4545Z" fill="#E7E4E2"/>
</svg>
