<svg width="36" height="36" viewBox="0 0 36 36" fill="none" xmlns="http://www.w3.org/2000/svg">
<path d="M30.6757 30.3721H25.3416V22.101C25.3416 20.1286 25.306 17.5897 22.5673 17.5897C19.7892 17.5897 19.3641 19.7386 19.3641 21.9574V30.3715H14.03V13.3628H19.1507V15.6872H19.2224C19.7349 14.8196 20.4754 14.1059 21.3651 13.6221C22.2548 13.1382 23.2604 12.9024 24.2748 12.9397C29.6811 12.9397 30.6779 16.4607 30.6779 21.0414L30.6757 30.3721ZM8.01139 11.0378C7.39917 11.0379 6.80066 10.8583 6.29155 10.5216C5.78245 10.1849 5.38565 9.70626 5.15126 9.14626C4.91687 8.58626 4.85544 7.97001 4.97477 7.37545C5.0941 6.78088 5.38883 6.23471 5.82165 5.806C6.25448 5.37728 6.80598 5.08527 7.40642 4.9669C8.00685 4.84854 8.62924 4.90912 9.19489 5.141C9.76055 5.37288 10.2441 5.76563 10.5843 6.2696C10.9245 6.77356 11.1062 7.36611 11.1063 7.9723C11.1063 8.37479 11.0263 8.77336 10.8708 9.14524C10.7154 9.51713 10.4874 9.85505 10.2 10.1397C9.91266 10.4244 9.57144 10.6502 9.19591 10.8043C8.82038 10.9584 8.41789 11.0377 8.01139 11.0378ZM10.6784 30.3721H5.3388V13.3628H10.6784V30.3721ZM33.3349 0.00322196H2.65844C1.96217 -0.00455806 1.29123 0.261685 0.793113 0.743445C0.294996 1.2252 0.0104507 1.88307 0.00195312 2.57247V33.0728C0.0101599 33.7626 0.294538 34.4209 0.792638 34.9031C1.29074 35.3854 1.96182 35.6522 2.65844 35.6448H33.3349C34.0329 35.6535 34.7059 35.3875 35.2059 34.9052C35.706 34.423 35.9923 33.7639 36.002 33.0728V2.57027C35.992 1.8795 35.7055 1.22089 35.2054 0.73914C34.7054 0.257392 34.0326 -0.00809002 33.3349 0.00102042" fill="black"/>
</svg>
