<svg width="19" height="19" viewBox="0 0 19 19" fill="none" xmlns="http://www.w3.org/2000/svg">
<path d="M15 8L13.55 6.6L15.15 5H10V3H15.15L13.6 1.45L15 0L19 4.05L15 8ZM16.95 19C14.8 19 12.7043 18.5207 10.663 17.562C8.621 16.604 6.81267 15.3373 5.238 13.762C3.66267 12.1873 2.396 10.379 1.438 8.337C0.479334 6.29567 0 4.2 0 2.05C0 1.75 0.0999999 1.5 0.3 1.3C0.5 1.1 0.75 1 1.05 1H5.1C5.33333 1 5.54167 1.075 5.725 1.225C5.90833 1.375 6.01667 1.56667 6.05 1.8L6.7 5.3C6.73333 5.53333 6.72933 5.74567 6.688 5.937C6.646 6.129 6.55 6.3 6.4 6.45L4 8.9C4.7 10.1 5.575 11.225 6.625 12.275C7.675 13.325 8.83333 14.2333 10.1 15L12.45 12.65C12.6 12.5 12.796 12.3873 13.038 12.312C13.2793 12.2373 13.5167 12.2167 13.75 12.25L17.2 12.95C17.4333 13 17.625 13.1123 17.775 13.287C17.925 13.4623 18 13.6667 18 13.9V17.95C18 18.25 17.9 18.5 17.7 18.7C17.5 18.9 17.25 19 16.95 19ZM3.05 7L4.7 5.35L4.25 3H2.05C2.13333 3.68333 2.25 4.35833 2.4 5.025C2.55 5.69167 2.76667 6.35 3.05 7ZM16 16.95V14.75L13.65 14.25L12 15.9C12.65 16.1833 13.3083 16.4167 13.975 16.6C14.6417 16.7833 15.3167 16.9 16 16.95Z" fill="white"/>
</svg>
