<svg width="16" height="16" viewBox="0 0 16 16" fill="none" xmlns="http://www.w3.org/2000/svg">
<path d="M12.6316 6.73684L11.4105 5.5579L12.7579 4.21053H8.42105V2.52632H12.7579L11.4526 1.22105L12.6316 0L16 3.41053L12.6316 6.73684ZM8.97937 14.7891C7.25979 13.9823 5.73698 12.9156 4.41095 11.5891C3.08435 10.263 2.01768 8.74021 1.21095 7.02063C0.282128 5.04285 0 2.99948 0 0.842105C1.66167 0.842105 3.32333 0.842105 4.985 0.842105C5.22602 2.25035 5.4805 3.65639 5.74593 5.06036C4.96943 5.88666 4.16186 6.68477 3.36842 7.49474C3.95789 8.50526 4.69474 9.45263 5.57895 10.3368C6.46316 11.2211 7.4386 11.986 8.50526 12.6316C9.31688 11.82 10.1213 11.0005 10.9455 10.2016C12.3498 10.4783 13.7515 10.7713 15.1579 11.0378C15.1579 12.6919 15.1579 14.3459 15.1579 16C13.0025 16 10.9561 15.7174 8.97937 14.7891ZM2.56842 5.89474L3.95789 4.50526L3.55266 2.37285H1.70003C1.70003 2.9154 1.89474 3.67018 2.02105 4.23158C2.14737 4.79298 2.32982 5.34737 2.56842 5.89474ZM13.6684 14.3104V12.4578L11.4947 12L10.1053 13.3895C10.6526 13.6281 11.207 13.8246 11.7684 13.9789C12.3298 14.1333 13.0929 14.2683 13.6684 14.3104Z" fill="black"/>
</svg>
