<svg width="44" height="66" viewBox="0 0 44 66" fill="none" xmlns="http://www.w3.org/2000/svg">
<path d="M20.1667 58.6667H23.8333V51.8833L36.6667 39.05V22H7.33333V39.05L20.1667 51.8833V58.6667ZM12.8333 66V55L0 42.1667V22C0 19.9833 0.718666 18.2563 2.156 16.819C3.59089 15.3841 5.31667 14.6667 7.33333 14.6667H11L7.33333 18.3333V0H14.6667V14.6667H29.3333V0H36.6667V18.3333L33 14.6667H36.6667C38.6833 14.6667 40.4103 15.3841 41.8477 16.819C43.2826 18.2563 44 19.9833 44 22V42.1667L31.1667 55V66H12.8333Z" fill="#E7E4E2"/>
</svg>
