<?xml version="1.0" encoding="UTF-8"?>
<svg id="SYGNET" xmlns="http://www.w3.org/2000/svg" viewBox="0 0 170.08 170.08">
  <defs>
    <style>
      .cls-1 {
        fill: #fff;
      }
    </style>
  </defs>
  <g id="Symetria_Sygnet-4" data-name="Symetria Sygnet">
    <g>
      <rect class="cls-1" x="27.17" width="115.74" height=".71"/>
      <polygon class="cls-1" points="0 35.64 0 170.08 170.08 170.08 170.08 35.64 169.37 35.64 169.37 169.37 .71 169.37 .71 35.64 0 35.64"/>
    </g>
    <path class="cls-1" d="M169.79,8.38l-8.76,6.83-50.85,14.53-25.14,65.31L59.9,29.73,8.98,15.18.29,8.38l-.43.56,8.67,6.79.14.34,25.29,60.78,33.93,13.71-.02,6.49-25.49,4.75-12.63,38.09-13.17,12.84.49.51,13.14-12.82,38.17-4.24,8.46-34.38-8.27-4.59.02-6.37,16.45,6.65,16.45-6.65.02,6.37-8.27,4.59,8.46,34.38,38.17,4.24,13.14,12.82.49-.51-13.17-12.84-.03-.08-12.6-38.01-25.49-4.75-.02-6.49,33.93-13.71,25.43-61.12,8.67-6.79-.43-.56ZM67.74,135.54l-36.73,4.08,28.88-28.9,7.94-4-.09,28.83ZM67.83,105.92l-8.41,4.24-28.56,28.61,12.05-36.36,24.95-4.65-.03,8.16ZM59.32,30.3l8.18,44.02-28.91-35.95L10.46,16.34l48.86,13.96ZM67.88,89.79l-33.39-13.49-.06-.14L9.66,16.61l28.53,22.39,29.59,36.79.14.89-.04,13.12ZM68.46,132.93l.08-26.58,7.37-3.71-7.45,30.29ZM75.68,101.96l-7.14,3.6.02-7.54,7.12,3.95ZM68.44,75.48l-.06-.35-8.1-42.75,24.12,62.94-15.95-19.83ZM68.59,90.08l.04-13.22,15.78,19.62-15.82-6.39ZM102.34,135.54l-.09-28.83,8.03,4.07,28.79,28.84-36.73-4.08ZM127.16,102.41l12.05,36.36-28.56-28.61-8.41-4.24-.03-8.16,24.95,4.65ZM110.75,30.3l48.87-13.96-28.13,22.03-28.92,35.96,8.18-44.02ZM85.67,96.47l15.78-19.62.04,13.23-15.82,6.39ZM101.51,98.02l.02,7.54-7.14-3.6,7.12-3.95ZM94.17,102.64l7.37,3.72.08,26.58-7.45-30.29ZM101.64,75.48l-.06.07-15.9,19.77,24.08-62.94-8.12,43.1ZM135.58,76.3l-.14.06-33.25,13.44-.04-13.16.15-.85,29.81-37.01,28.3-22.16-24.83,59.69Z"/>
  </g>
</svg>