<?xml version="1.0" encoding="UTF-8"?>
<svg id="SYGNET" xmlns="http://www.w3.org/2000/svg" xmlns:xlink="http://www.w3.org/1999/xlink" version="1.1" viewBox="0 0 170.1 170.1">
  <!-- Generator: Adobe Illustrator 29.0.1, SVG Export Plug-In . SVG Version: 2.1.0 Build 192)  -->
  <defs>
    <style>
      .st0 {
        fill: url(#linear-gradient1);
      }

      .st1 {
        fill: url(#linear-gradient);
      }
    </style>
    <linearGradient id="linear-gradient" x1="85" y1="170.1" x2="85" y2="0" gradientUnits="userSpaceOnUse">
      <stop offset="0" stop-color="#fff"/>
      <stop offset="1" stop-color="#fff" stop-opacity=".6"/>
    </linearGradient>
    <linearGradient id="linear-gradient1" x1="85" y1="153.2" x2="85" y2="8.4" gradientUnits="userSpaceOnUse">
      <stop offset="0" stop-color="#fff" stop-opacity=".6"/>
      <stop offset="1" stop-color="#fff"/>
    </linearGradient>
  </defs>
  <path class="st1" d="M27.2,0h115.7v.7H27.2V0ZM0,35.6v134.4h170.1V35.6h-.7v133.7H.7V35.6h-.7Z"/>
  <path class="st0" d="M169.8,8.4l-8.8,6.8-50.8,14.5-25.1,65.3L59.9,29.7,9,15.2.3,8.4l-.4.6,8.7,6.8v.3c.1,0,25.4,60.8,25.4,60.8l33.9,13.7v6.5s-25.5,4.8-25.5,4.8l-12.6,38.1-13.2,12.8.5.5,13.1-12.8,38.2-4.2,8.5-34.4-8.3-4.6v-6.4s16.5,6.7,16.5,6.7l16.4-6.7v6.4s-8.2,4.6-8.2,4.6l8.5,34.4,38.2,4.2,13.1,12.8.5-.5-13.2-12.8h0c0,0-12.6-38.1-12.6-38.1l-25.5-4.8v-6.5s33.9-13.7,33.9-13.7l25.4-61.1,8.7-6.8-.4-.6h0ZM67.7,135.5l-36.7,4.1,28.9-28.9,7.9-4v28.8c0,0,0,0,0,0ZM67.8,105.9l-8.4,4.2-28.6,28.6,12.1-36.4,24.9-4.7v8.2s0,0,0,0ZM59.3,30.3l8.2,44-28.9-36L10.5,16.3l48.9,14ZM67.9,89.8l-33.4-13.5h0c0-.1-24.8-59.7-24.8-59.7l28.5,22.4,29.6,36.8v.9c.1,0,0,13.1,0,13.1h0ZM68.5,132.9v-26.6c0,0,7.5-3.7,7.5-3.7,0,0-7.4,30.3-7.5,30.3ZM75.7,102l-7.1,3.6v-7.5s7.1,3.9,7.1,3.9h0ZM68.4,75.5v-.3c0,0-8.2-42.8-8.2-42.8l24.1,62.9-15.9-19.8h0ZM68.6,90.1v-13.2s15.8,19.6,15.8,19.6l-15.8-6.4h0ZM102.3,135.5v-28.8c0,0,7.9,4.1,7.9,4.1l28.8,28.8-36.7-4.1h0ZM127.2,102.4l12.1,36.4-28.6-28.6-8.4-4.2v-8.2s24.9,4.7,24.9,4.6ZM110.8,30.3l48.9-14-28.1,22-28.9,36,8.2-44h0ZM85.7,96.5l15.8-19.6v13.2s-15.8,6.4-15.8,6.4ZM101.5,98v7.5s-7.1-3.6-7.1-3.6l7.1-3.9h0ZM94.2,102.6l7.4,3.7v26.6c0,0-7.4-30.3-7.4-30.3h0ZM101.6,75.5h0c0,0-15.9,19.8-15.9,19.8l24.1-62.9s-8.1,43.1-8.1,43.1ZM135.6,76.3h-.1c0,0-33.2,13.5-33.2,13.5v-13.2s.1-.8.1-.8l29.8-37,28.3-22.2-24.8,59.7h0Z"/>
</svg>