<svg width="61" height="60" viewBox="0 0 61 60" fill="none" xmlns="http://www.w3.org/2000/svg">
<g clip-path="url(#clip0_222_1172)">
<path d="M60.2476 60H0.247559V12.3673H1.47205V58.7755H59.0231V12.3673H60.2476V60ZM50.819 0H9.67613V1.22449H50.819V0Z" fill="#68635D"/>
<path d="M57.2008 6.25217L60.4947 3.67339L59.7404 2.7085L56.4147 5.31421L38.6033 10.4032L30.2473 32.1085L21.8914 10.4032L4.08 5.31421L0.754286 2.7085L0 3.67339L3.29388 6.25217L12.1469 27.5338L23.8016 32.2432L23.7967 33.7567L15.0661 35.3828L10.631 48.7616L5.79673 53.4783L6.65143 54.355L11.4416 49.6824L24.8596 48.1934L27.9649 35.5689L25.0188 33.9354L25.0237 32.7379L29.3314 34.4791L30.2449 34.8489L31.1584 34.4791L35.4661 32.7379L35.471 33.9354L32.5249 35.5689L35.6302 48.1934L49.0482 49.6824L53.8384 54.355L54.6931 53.4783L49.8588 48.7616L45.4237 35.3828L36.6931 33.7567L36.6882 32.2432L48.3429 27.5338L57.1959 6.25217H57.2008ZM23.7551 47.084L12.8302 48.2963L21.7935 39.3183L23.782 38.3167L23.7551 47.0865V47.084ZM23.7869 36.9428L21.0661 38.3142L12.5608 46.8318L16.0016 36.4554L23.7918 35.0032L23.7869 36.9428ZM20.8971 11.3926L23.3241 24.4603L14.5176 13.5085L14.4735 13.4546L6.64163 7.31992L20.8996 11.3926H20.8971ZM23.8065 30.9232L13.08 26.5885L5.26041 7.79258L13.6065 14.3289L23.7967 26.9975L23.8188 27.115L23.8065 30.9232ZM24.9943 42.5265L25.009 37.6995L26.3486 37.0236L24.9943 42.5265ZM25.9518 35.8505L25.0139 36.3232V35.3314L25.9518 35.8505ZM24.9453 26.4734L23.2457 17.3289L28.4376 30.8179L24.9429 26.4734H24.9453ZM25.0286 31.4179L25.0384 28.5428L28.4669 32.8065L25.0286 31.4179ZM36.7371 47.084L36.7102 38.3142L38.6988 39.3158L47.662 48.2938L36.7371 47.0816V47.084ZM44.4906 36.4554L47.9314 46.8318L39.4971 38.3828L39.4261 38.3118L36.7053 36.9403L36.7004 35.0007L44.4906 36.453V36.4554ZM39.5951 11.3926L53.8531 7.31992L46.0751 13.4105L46.0188 13.4546L37.1682 24.4603L39.5951 11.3926ZM32.0278 32.8065L35.4563 28.5428L35.4661 31.4179L32.0278 32.8065ZM35.4759 35.3338V36.3256L34.5404 35.853L35.4759 35.3338ZM34.1461 37.0236L35.4857 37.6995L35.5004 42.5265L34.1461 37.0236ZM35.5494 26.4734L32.0547 30.8179L37.2465 17.3289L35.5469 26.4734H35.5494ZM36.6882 30.9232L36.6759 27.115L36.698 26.9975L46.8882 14.3289L55.2343 7.79258L47.4147 26.5885L36.6882 30.9232Z" fill="white"/>
</g>
<defs>
<clipPath id="clip0_222_1172">
<rect width="60.4947" height="60" fill="white"/>
</clipPath>
</defs>
</svg>
