<svg width="248" height="245" viewBox="0 0 248 245" fill="none" xmlns="http://www.w3.org/2000/svg">
<g clip-path="url(#clip0_222_1166)">
<path d="M246.01 245H1.00977V50.5H6.00977V240H241.01V50.5H246.01V245ZM207.51 0H39.5098V5H207.51V0Z" fill="#68635D"/>
<path d="M233.57 25.5301L247.02 15.0001L243.94 11.0601L230.36 21.7001L157.63 42.4801L123.51 131.11L89.39 42.4801L16.66 21.7001L3.08 11.0601L0 15.0001L13.45 25.5301L49.6 112.43L97.19 131.66L97.17 137.84L61.52 144.48L43.41 199.11L23.67 218.37L27.16 221.95L46.72 202.87L101.51 196.79L114.19 145.24L102.16 138.57L102.18 133.68L119.77 140.79L123.5 142.3L127.23 140.79L144.82 133.68L144.84 138.57L132.81 145.24L145.49 196.79L200.28 202.87L219.84 221.95L223.33 218.37L203.59 199.11L185.48 144.48L149.83 137.84L149.81 131.66L197.4 112.43L233.55 25.5301H233.57ZM97 192.26L52.39 197.21L88.99 160.55L97.11 156.46L97 192.27V192.26ZM97.13 150.85L86.02 156.45L51.29 191.23L65.34 148.86L97.15 142.93L97.13 150.85ZM85.33 46.5201L95.24 99.8801L59.28 55.1601L59.1 54.9401L27.12 29.8901L85.34 46.5201H85.33ZM97.21 126.27L53.41 108.57L21.48 31.8201L55.56 58.5101L97.17 110.24L97.26 110.72L97.21 126.27ZM102.06 173.65L102.12 153.94L107.59 151.18L102.06 173.65ZM105.97 146.39L102.14 148.32V144.27L105.97 146.39ZM101.86 108.1L94.92 70.7601L116.12 125.84L101.85 108.1H101.86ZM102.2 128.29L102.24 116.55L116.24 133.96L102.2 128.29ZM150.01 192.26L149.9 156.45L158.02 160.54L194.62 197.2L150.01 192.25V192.26ZM181.67 148.86L195.72 191.23L161.28 156.73L160.99 156.44L149.88 150.84L149.86 142.92L181.67 148.85V148.86ZM161.68 46.5201L219.9 29.8901L188.14 54.7601L187.91 54.9401L151.77 99.8801L161.68 46.5201ZM130.78 133.96L144.78 116.55L144.82 128.29L130.78 133.96ZM144.86 144.28V148.33L141.04 146.4L144.86 144.28ZM139.43 151.18L144.9 153.94L144.96 173.65L139.43 151.18ZM145.16 108.1L130.89 125.84L152.09 70.7601L145.15 108.1H145.16ZM149.81 126.27L149.76 110.72L149.85 110.24L191.46 58.5101L225.54 31.8201L193.61 108.57L149.81 126.27Z" fill="black"/>
</g>
<defs>
<clipPath id="clip0_222_1166">
<rect width="247.02" height="245" fill="white"/>
</clipPath>
</defs>
</svg>
