<svg width="36" height="36" viewBox="0 0 36 36" fill="none" xmlns="http://www.w3.org/2000/svg">
<g clip-path="url(#clip0_13_90)">
<path d="M28.7439 7.21589C26.8015 5.95169 25.4007 3.92806 24.963 1.57032C24.869 1.06103 24.8165 0.536383 24.8165 0H18.6184L18.6085 24.8037C18.5045 27.5813 16.2148 29.8108 13.4087 29.8108C12.5361 29.8108 11.715 29.5932 10.9915 29.213C9.33302 28.3416 8.19811 26.6061 8.19811 24.6086C8.19811 21.7398 10.5357 19.4055 13.4078 19.4055C13.9441 19.4055 14.4586 19.494 14.9451 19.6457V13.3274C14.4414 13.2588 13.9296 13.2163 13.4078 13.2163C7.11747 13.2163 2 18.3264 2 24.6086C2 28.4626 3.92798 31.8733 6.87059 33.9357C8.72351 35.2352 10.9779 36 13.4087 36C19.6991 36 24.8165 30.8899 24.8165 24.6086V12.0307C27.2473 13.7726 30.2261 14.7993 33.44 14.7993V8.61013C31.7092 8.61013 30.0968 8.09632 28.7439 7.21589Z" fill="white"/>
</g>
<defs>
<clipPath id="clip0_13_90">
<rect width="31.44" height="36" fill="white" transform="translate(2)"/>
</clipPath>
</defs>
</svg>
