<svg width="64" height="80" viewBox="0 0 64 80" fill="none" xmlns="http://www.w3.org/2000/svg">
<path d="M32 44C28.0667 44 24.75 42.65 22.05 39.95C19.35 37.25 18 33.9333 18 30C18 26.0667 19.35 22.75 22.05 20.05C24.75 17.35 28.0667 16 32 16C35.9333 16 39.25 17.35 41.95 20.05C44.65 22.75 46 26.0667 46 30C46 33.9333 44.65 37.25 41.95 39.95C39.25 42.65 35.9333 44 32 44ZM32 36C33.7333 36 35.1667 35.4333 36.3 34.3C37.4333 33.1667 38 31.7333 38 30C38 28.2667 37.4333 26.8333 36.3 25.7C35.1667 24.5667 33.7333 24 32 24C30.2667 24 28.8333 24.5667 27.7 25.7C26.5667 26.8333 26 28.2667 26 30C26 31.7333 26.5667 33.1667 27.7 34.3C28.8333 35.4333 30.2667 36 32 36ZM32 80C22.7333 77.6667 15.0833 72.35 9.05 64.05C3.01667 55.75 0 46.5333 0 36.4V12L32 0L64 12V36.4C64 46.5333 60.9833 55.75 54.95 64.05C48.9167 72.35 41.2667 77.6667 32 80ZM32 8.5L8 17.5V36.4C8 40 8.5 43.5 9.5 46.9C10.5 50.3 11.8667 53.5 13.6 56.5C16.4 55.1 19.3333 54 22.4 53.2C25.4667 52.4 28.6667 52 32 52C35.3333 52 38.5333 52.4 41.6 53.2C44.6667 54 47.6 55.1 50.4 56.5C52.1333 53.5 53.5 50.3 54.5 46.9C55.5 43.5 56 40 56 36.4V17.5L32 8.5ZM32 60C29.6 60 27.2667 60.2667 25 60.8C22.7333 61.3333 20.5667 62.0667 18.5 63C20.4333 65 22.5333 66.7333 24.8 68.2C27.0667 69.6667 29.4667 70.8 32 71.6C34.5333 70.8 36.9333 69.6667 39.2 68.2C41.4667 66.7333 43.5667 65 45.5 63C43.4333 62.0667 41.2667 61.3333 39 60.8C36.7333 60.2667 34.4 60 32 60Z" fill="#E7E4E2"/>
</svg>
