<svg width="76" height="72" viewBox="0 0 76 72" fill="none" xmlns="http://www.w3.org/2000/svg">
<path d="M72 17.12V8C72 3.6 68.4 0 64 0H8C3.56 0 0 3.6 0 8V64C0 68.4 3.56 72 8 72H64C68.4 72 72 68.4 72 64V54.88C74.36 53.48 76 50.96 76 48V24C76 21.04 74.36 18.52 72 17.12ZM68 24V48H40V24H68ZM8 64V8H64V16H40C35.6 16 32 19.6 32 24V48C32 52.4 35.6 56 40 56H64V64H8Z" fill="black"/>
<path d="M52 42C55.3137 42 58 39.3137 58 36C58 32.6863 55.3137 30 52 30C48.6863 30 46 32.6863 46 36C46 39.3137 48.6863 42 52 42Z" fill="black"/>
</svg>
